<svg xmlns="http://www.w3.org/2000/svg" width="50" height="50" viewBox="0 0 50 50">
  <g id="Instagram" transform="translate(-0.364)">
    <circle id="Elipse_11" data-name="Elipse 11" cx="25" cy="25" r="25" transform="translate(0.364 0)" fill="#c13584"/>
    <path id="Trazado_83" data-name="Trazado 83" d="M26.9,14.685c3.978,0,4.449.015,6.02.087a8.246,8.246,0,0,1,2.767.513,4.934,4.934,0,0,1,2.828,2.828,8.246,8.246,0,0,1,.513,2.767c.072,1.571.087,2.042.087,6.02s-.015,4.449-.087,6.021a8.245,8.245,0,0,1-.513,2.766,4.933,4.933,0,0,1-2.828,2.828,8.24,8.24,0,0,1-2.767.513c-1.571.072-2.042.087-6.02.087s-4.45-.015-6.02-.087a8.238,8.238,0,0,1-2.767-.513,4.934,4.934,0,0,1-2.828-2.828,8.245,8.245,0,0,1-.513-2.766c-.072-1.571-.087-2.042-.087-6.021s.015-4.449.087-6.02a8.246,8.246,0,0,1,.513-2.767,4.935,4.935,0,0,1,2.828-2.828,8.245,8.245,0,0,1,2.767-.513C22.45,14.7,22.921,14.685,26.9,14.685ZM26.9,12c-4.046,0-4.554.017-6.143.09a10.937,10.937,0,0,0-3.616.693,7.619,7.619,0,0,0-4.357,4.357,10.938,10.938,0,0,0-.693,3.617c-.073,1.589-.09,2.1-.09,6.143s.017,4.554.09,6.143a10.938,10.938,0,0,0,.693,3.617,7.618,7.618,0,0,0,4.357,4.357,10.931,10.931,0,0,0,3.616.693c1.589.073,2.1.09,6.143.09s4.554-.017,6.143-.09a10.931,10.931,0,0,0,3.617-.693,7.619,7.619,0,0,0,4.357-4.357,10.938,10.938,0,0,0,.692-3.617c.073-1.589.09-2.1.09-6.143s-.017-4.554-.09-6.143a10.939,10.939,0,0,0-.692-3.617,7.619,7.619,0,0,0-4.357-4.357,10.938,10.938,0,0,0-3.617-.693C31.453,12.017,30.945,12,26.9,12Z" transform="translate(-2.342 -2.056)" fill="#fff"/>
    <path id="Trazado_84" data-name="Trazado 84" d="M25.494,17.843a7.651,7.651,0,1,0,7.651,7.651A7.651,7.651,0,0,0,25.494,17.843Zm0,12.617a4.966,4.966,0,1,1,4.966-4.966A4.966,4.966,0,0,1,25.494,30.461Z" transform="translate(-0.931 -0.644)" fill="#fff"/>
    <path id="Trazado_85" data-name="Trazado 85" d="M32.547,17.944a1.788,1.788,0,1,1-1.788-1.788A1.788,1.788,0,0,1,32.547,17.944Z" transform="translate(1.758 -1.052)" fill="#fff"/>
  </g>
</svg>
