<svg xmlns="http://www.w3.org/2000/svg" xmlns:xlink="http://www.w3.org/1999/xlink" width="39.772" height="45.488" viewBox="0 0 39.772 45.488">
  <defs>
    <linearGradient id="linear-gradient" x1="0.5" y1="1" x2="0.5" gradientUnits="objectBoundingBox">
      <stop offset="0" stop-color="#f15a24"/>
      <stop offset="1" stop-color="#e9e400"/>
    </linearGradient>
    <linearGradient id="linear-gradient-2" x1="-0.068" y1="0.251" x2="0.857" y2="0.833" gradientUnits="objectBoundingBox">
      <stop offset="0" stop-color="#99bf00"/>
      <stop offset="1" stop-color="#00d9e9"/>
    </linearGradient>
    <linearGradient id="linear-gradient-3" x1="0.5" y1="1" x2="0.5" gradientUnits="objectBoundingBox">
      <stop offset="0" stop-color="#1b1464"/>
      <stop offset="1" stop-color="#662d91"/>
    </linearGradient>
  </defs>
  <g id="Logo_empower" style="isolation: isolate">
    <g id="Capa_1" data-name="Capa 1" transform="translate(0 0)">
      <path id="Trazado_24" data-name="Trazado 24" d="M435.966,620.37c-5.145,0-9.316.238-9.316.539s4.166.539,9.316.539,9.316-.238,9.316-.539S441.11,620.37,435.966,620.37Z" transform="translate(-416.541 -575.96)" fill="#d0d2d3" fill-rule="evenodd"/>
      <path id="Trazado_25" data-name="Trazado 25" d="M452.63,286.211c-1.038-3.369,4.821-17.279,4.808-22.117-.014-4.709-1.846-7.579-4.125-8.737a4.234,4.234,0,1,0-4.146-.312,6.418,6.418,0,0,0-3.719,3.538c-2.084,4.523-.84,9.888-5.289,6.911.389,1.513,5.662,4.942,7.818,1.326.5-.833.9-1.691,1.443-2.5,4.59-6.814-.492,18.6.961,23.729,1.53,5.393,9.708-.959,8.819-10.337C459.279,282.838,453.83,290.12,452.63,286.211Z" transform="translate(-428.443 -247.289)" fill="url(#linear-gradient)"/>
      <path id="Trazado_26" data-name="Trazado 26" d="M477.191,317.71a5.262,5.262,0,0,0-4.781,3.27c-.932,2.024-1.336,6.41-2.531,7.647a2.367,2.367,0,0,0,3.544-.207c.686-1.151,2.109-4.514,3.763-4.021.833.249,1.059,1.231,1.153,1.985.419,3.372-.3,8.332-.612,11.764-.214,2.36-.433,4.736-.533,7.1-.039.926-.063,1.864-.026,2.791s.132,2.719,1.161,3.095c1.006.367,2.381-.714,3.052-1.393-4.266,2.7-3.459-4.285-2.994-6.309.536-2.338,1.243-4.664,1.927-6.962a77.688,77.688,0,0,0,2.25-8.479,10.843,10.843,0,0,0,.2-1.858C482.75,321.007,480.169,317.7,477.191,317.71Z" transform="translate(-454.625 -309.327)" fill="#fff" fill-rule="evenodd" opacity="0.7" style="mix-blend-mode: soft-light;isolation: isolate"/>
      <path id="Trazado_27" data-name="Trazado 27" d="M527.893,380.982c.238,2.678-.4,8.292-.833,13.437.867-1.614,3.138-7.214,5.414-6.785A32.162,32.162,0,0,0,534,380.312q0-.514-.032-1A7.826,7.826,0,0,0,527.893,380.982Z" transform="translate(-504.999 -363.509)" fill="#2f170e" opacity="0.3"/>
      <path id="Trazado_28" data-name="Trazado 28" d="M362.639,335.894a6.131,6.131,0,0,0-2.038,2.928c-.911,2.366-1.8,5.94-2.357,6.666-2.916,3.791-9.09-9.761-3.129-6.868,3.168,1.513,4.82-2.463,6.146-4.577-2.413,3.333-6.137-.389-8.953-2.058a5.566,5.566,0,0,0-2.839-.857,4.475,4.475,0,1,0-3.162,1.418,3.745,3.745,0,0,0-.968,2.009c-.3,2.634,1.4,6.589,2.29,8.374,2.724,5.476,9.623,11.018,13.991,4.654,3.246-4.729,4.88-12.228,9.329-8.9C370.073,335.68,365.4,334.093,362.639,335.894Z" transform="translate(-341.725 -314.514)" fill="url(#linear-gradient-2)"/>
      <path id="Trazado_29" data-name="Trazado 29" d="M356.776,337.424A3.448,3.448,0,1,0,353.8,339.3,3.1,3.1,0,0,0,356.776,337.424Z" transform="translate(-349.244 -322.314)" fill="#fff" fill-rule="evenodd" opacity="0.7" style="mix-blend-mode: soft-light;isolation: isolate"/>
      <path id="Trazado_30" data-name="Trazado 30" d="M395.821,404.03c-.624,1.619-1.081,3.308-1.634,4.952-.455,1.352-.987,2.857-2.64,3.05a3.465,3.465,0,0,1-2.678-1.108c-1.73-1.613-4.4-6.558-2.345-8.417.94-.851,2.271-.494,3.287,0,1.342.649,2.2-.2,2.976-1.245a9.773,9.773,0,0,1-4.354-1.916c-.8-.539-1.6-1.126-2.427-1.619-1.98-1.174-5.142-.368-5.386,1.786-.251,2.224,1.206,5.811,2.187,7.785,1.471,2.958,5.066,7.131,8.586,6.9,2.585-.167,3.983-2.829,5.072-4.864.824-1.537,1.575-3.154,2.5-4.628a6.116,6.116,0,0,1,3.365-2.976C399.455,400.127,396.977,401.029,395.821,404.03Z" transform="translate(-375.963 -379.343)" fill="#fff" fill-rule="evenodd" opacity="0.7" style="mix-blend-mode: soft-light;isolation: isolate"/>
      <path id="Trazado_31" data-name="Trazado 31" d="M516.982,337.11a4.864,4.864,0,0,0-3.833,6.162c-3.452-1.428-8.043.357-11.01,6.864,2.1-4.085,5.952-3.619,8.543-1.463,5.637,4.695,2.6,16.943-2.433,20.205,2.92-1.011,5.582-4.848,7.119-7.818,3.143-6.071,3.034-11.172,1.309-14.426a4.865,4.865,0,1,0,.3-9.523Z" transform="translate(-483.045 -326.355)" fill="url(#linear-gradient-3)"/>
      <path id="Trazado_32" data-name="Trazado 32" d="M540.485,393.918c-2.371-.688-4.642.462-6.285,2.121.071-.008.144-.015.218-.02a7.743,7.743,0,0,1,6.364,3.107c2.631,3.385,2.538,8.473,1.4,12.438a20.937,20.937,0,0,0,2.933-8.9C545.348,398.961,544.355,395.042,540.485,393.918Z" transform="translate(-511.289 -376.285)" fill="#fff" fill-rule="evenodd" opacity="0.7" style="mix-blend-mode: soft-light;isolation: isolate"/>
      <circle id="Elipse_1" data-name="Elipse 1" cx="3.789" cy="3.789" r="3.789" transform="translate(29.871 17.56) rotate(-67.5)" fill="#fff" opacity="0.7" style="mix-blend-mode: soft-light;isolation: isolate"/>
      <circle id="Elipse_2" data-name="Elipse 2" cx="3.147" cy="3.147" r="3.147" transform="translate(19.361 6.46) rotate(-76.72)" fill="#fff" opacity="0.7" style="mix-blend-mode: soft-light;isolation: isolate"/>
    </g>
  </g>
</svg>
