<svg xmlns="http://www.w3.org/2000/svg" xmlns:xlink="http://www.w3.org/1999/xlink" width="141.371" height="45.488" viewBox="0 0 141.371 45.488">
  <defs>
    <linearGradient id="linear-gradient" x1="0.5" y1="1" x2="0.5" gradientUnits="objectBoundingBox">
      <stop offset="0" stop-color="#f15a24"/>
      <stop offset="1" stop-color="#e9e400"/>
    </linearGradient>
    <linearGradient id="linear-gradient-2" x1="-0.068" y1="0.251" x2="0.857" y2="0.833" gradientUnits="objectBoundingBox">
      <stop offset="0" stop-color="#99bf00"/>
      <stop offset="1" stop-color="#00d9e9"/>
    </linearGradient>
    <linearGradient id="linear-gradient-3" x1="0.5" y1="1" x2="0.5" gradientUnits="objectBoundingBox">
      <stop offset="0" stop-color="#1b1464"/>
      <stop offset="1" stop-color="#662d91"/>
    </linearGradient>
  </defs>
  <g id="Grupo_4" data-name="Grupo 4" transform="translate(-106.983 -54)">
    <g id="Logo_empower" transform="translate(106.983 54)" style="isolation: isolate">
      <g id="Capa_1" data-name="Capa 1" transform="translate(0 0)">
        <path id="Trazado_24" data-name="Trazado 24" d="M435.966,620.37c-5.145,0-9.316.238-9.316.539s4.166.539,9.316.539,9.316-.238,9.316-.539S441.11,620.37,435.966,620.37Z" transform="translate(-416.541 -575.96)" fill="#d0d2d3" fill-rule="evenodd"/>
        <path id="Trazado_25" data-name="Trazado 25" d="M452.63,286.211c-1.038-3.369,4.821-17.279,4.808-22.117-.014-4.709-1.846-7.579-4.125-8.737a4.234,4.234,0,1,0-4.146-.312,6.418,6.418,0,0,0-3.719,3.538c-2.084,4.523-.84,9.888-5.289,6.911.389,1.513,5.662,4.942,7.818,1.326.5-.833.9-1.691,1.443-2.5,4.59-6.814-.492,18.6.961,23.729,1.53,5.393,9.708-.959,8.819-10.337C459.279,282.838,453.83,290.12,452.63,286.211Z" transform="translate(-428.443 -247.289)" fill="url(#linear-gradient)"/>
        <path id="Trazado_26" data-name="Trazado 26" d="M477.191,317.71a5.262,5.262,0,0,0-4.781,3.27c-.932,2.024-1.336,6.41-2.531,7.647a2.367,2.367,0,0,0,3.544-.207c.686-1.151,2.109-4.514,3.763-4.021.833.249,1.059,1.231,1.153,1.985.419,3.372-.3,8.332-.612,11.764-.214,2.36-.433,4.736-.533,7.1-.039.926-.063,1.864-.026,2.791s.132,2.719,1.161,3.095c1.006.367,2.381-.714,3.052-1.393-4.266,2.7-3.459-4.285-2.994-6.309.536-2.338,1.243-4.664,1.927-6.962a77.688,77.688,0,0,0,2.25-8.479,10.843,10.843,0,0,0,.2-1.858C482.75,321.007,480.169,317.7,477.191,317.71Z" transform="translate(-454.625 -309.327)" fill="#fff" fill-rule="evenodd" opacity="0.7" style="mix-blend-mode: soft-light;isolation: isolate"/>
        <path id="Trazado_27" data-name="Trazado 27" d="M527.893,380.982c.238,2.678-.4,8.292-.833,13.437.867-1.614,3.138-7.214,5.414-6.785A32.162,32.162,0,0,0,534,380.312q0-.514-.032-1A7.826,7.826,0,0,0,527.893,380.982Z" transform="translate(-504.999 -363.509)" fill="#2f170e" opacity="0.3"/>
        <path id="Trazado_28" data-name="Trazado 28" d="M362.639,335.894a6.131,6.131,0,0,0-2.038,2.928c-.911,2.366-1.8,5.94-2.357,6.666-2.916,3.791-9.09-9.761-3.129-6.868,3.168,1.513,4.82-2.463,6.146-4.577-2.413,3.333-6.137-.389-8.953-2.058a5.566,5.566,0,0,0-2.839-.857,4.475,4.475,0,1,0-3.162,1.418,3.745,3.745,0,0,0-.968,2.009c-.3,2.634,1.4,6.589,2.29,8.374,2.724,5.476,9.623,11.018,13.991,4.654,3.246-4.729,4.88-12.228,9.329-8.9C370.073,335.68,365.4,334.093,362.639,335.894Z" transform="translate(-341.725 -314.514)" fill="url(#linear-gradient-2)"/>
        <path id="Trazado_29" data-name="Trazado 29" d="M356.776,337.424A3.448,3.448,0,1,0,353.8,339.3,3.1,3.1,0,0,0,356.776,337.424Z" transform="translate(-349.244 -322.314)" fill="#fff" fill-rule="evenodd" opacity="0.7" style="mix-blend-mode: soft-light;isolation: isolate"/>
        <path id="Trazado_30" data-name="Trazado 30" d="M395.821,404.03c-.624,1.619-1.081,3.308-1.634,4.952-.455,1.352-.987,2.857-2.64,3.05a3.465,3.465,0,0,1-2.678-1.108c-1.73-1.613-4.4-6.558-2.345-8.417.94-.851,2.271-.494,3.287,0,1.342.649,2.2-.2,2.976-1.245a9.773,9.773,0,0,1-4.354-1.916c-.8-.539-1.6-1.126-2.427-1.619-1.98-1.174-5.142-.368-5.386,1.786-.251,2.224,1.206,5.811,2.187,7.785,1.471,2.958,5.066,7.131,8.586,6.9,2.585-.167,3.983-2.829,5.072-4.864.824-1.537,1.575-3.154,2.5-4.628a6.116,6.116,0,0,1,3.365-2.976C399.455,400.127,396.977,401.029,395.821,404.03Z" transform="translate(-375.963 -379.343)" fill="#fff" fill-rule="evenodd" opacity="0.7" style="mix-blend-mode: soft-light;isolation: isolate"/>
        <path id="Trazado_31" data-name="Trazado 31" d="M516.982,337.11a4.864,4.864,0,0,0-3.833,6.162c-3.452-1.428-8.043.357-11.01,6.864,2.1-4.085,5.952-3.619,8.543-1.463,5.637,4.695,2.6,16.943-2.433,20.205,2.92-1.011,5.582-4.848,7.119-7.818,3.143-6.071,3.034-11.172,1.309-14.426a4.865,4.865,0,1,0,.3-9.523Z" transform="translate(-483.045 -326.355)" fill="url(#linear-gradient-3)"/>
        <path id="Trazado_32" data-name="Trazado 32" d="M540.485,393.918c-2.371-.688-4.642.462-6.285,2.121.071-.008.144-.015.218-.02a7.743,7.743,0,0,1,6.364,3.107c2.631,3.385,2.538,8.473,1.4,12.438a20.937,20.937,0,0,0,2.933-8.9C545.348,398.961,544.355,395.042,540.485,393.918Z" transform="translate(-511.289 -376.285)" fill="#fff" fill-rule="evenodd" opacity="0.7" style="mix-blend-mode: soft-light;isolation: isolate"/>
        <circle id="Elipse_1" data-name="Elipse 1" cx="3.789" cy="3.789" r="3.789" transform="translate(29.871 17.56) rotate(-67.5)" fill="#fff" opacity="0.7" style="mix-blend-mode: soft-light;isolation: isolate"/>
        <circle id="Elipse_2" data-name="Elipse 2" cx="3.147" cy="3.147" r="3.147" transform="translate(19.361 6.46) rotate(-76.72)" fill="#fff" opacity="0.7" style="mix-blend-mode: soft-light;isolation: isolate"/>
      </g>
    </g>
    <g id="Grupo_3" data-name="Grupo 3" transform="translate(155.683 63.927)">
      <g id="Grupo_1" data-name="Grupo 1" transform="translate(0)">
        <path id="Trazado_33" data-name="Trazado 33" d="M273.957,701.6v-.457a4.728,4.728,0,0,0,.824-.476,54.823,54.823,0,0,0,.173-5.564q0-2.891-.061-3.832a.952.952,0,0,0-.173-.631,3.488,3.488,0,0,0-1.26-.225V689.7q2,.078,3.161.076l4.671-.076a13.193,13.193,0,0,1,1.33.061l.059.093a18.364,18.364,0,0,0-.279,2.493h-.67a7.368,7.368,0,0,0-.1-1.324.736.736,0,0,0-.386-.161,11.042,11.042,0,0,0-2.154-.154q-.713,0-1.663.06-.112,2.621-.128,4.171c.605.04,1.173.061,1.706.061a7.083,7.083,0,0,0,1.415-.076.346.346,0,0,0,.2-.247,7.533,7.533,0,0,0,.119-1.067h.728c-.028.957-.042,1.581-.042,1.87l.042,1.912h-.728a5.069,5.069,0,0,0-.154-1.287.315.315,0,0,0-.228-.145,11.6,11.6,0,0,0-1.9-.093c-.311,0-.675.019-1.093.059-.012.3-.017.6-.017.913q0,2.422.085,3.716l1.682.026a20.651,20.651,0,0,0,2.626-.152q.213-.784.407-1.78h.7a28,28,0,0,0-.228,2.9c-.519.04-1.009.059-1.484.059-.311,0-.924-.009-1.841-.029q-1.28-.028-2.356-.029Q275.526,701.539,273.957,701.6Z" transform="translate(-273.46 -689.534)"/>
        <path id="Trazado_34" data-name="Trazado 34" d="M333.926,701.6v-.711l.505-.035a1.181,1.181,0,0,0,.772-.213,2.563,2.563,0,0,0,.173-1.211q.061-2.092.059-4.533,0-1.3-.012-2.941a4.28,4.28,0,0,0-.114-1.22.383.383,0,0,0-.187-.173,6.282,6.282,0,0,0-1.211-.144V689.7q1.023.026,2.007.026,1.142,0,2.2-.026.458,1.076.952,2.135.346.756,3.08,6.4,2.907-5.8,4.061-8.536c.676.028,1.32.043,1.929.043q1.074,0,2.076-.043v.713a3.358,3.358,0,0,0-1.254.2,1.345,1.345,0,0,0-.187.78q-.061,1.066-.06,4.057,0,1.509.031,3.187a11.231,11.231,0,0,0,.114,1.9.433.433,0,0,0,.173.194,5.434,5.434,0,0,0,1.187.163v.711q-1.372-.06-2.451-.059t-2.95.059v-.711l.5-.017a1.258,1.258,0,0,0,.742-.173,1.285,1.285,0,0,0,.19-.737c.028-.391.043-1.339.043-2.818V692.03q-1.308,2.621-3.337,6.87-.834,1.749-1.3,2.851H341.1q-.638-1.462-1.708-3.69l-2.941-6.031v1.152q0,4.78.043,6.574a1.53,1.53,0,0,0,.2.9,2.684,2.684,0,0,0,1.263.221v.711c-.576-.04-1.151-.059-1.73-.059Q334.939,701.539,333.926,701.6Z" transform="translate(-323.452 -689.534)"/>
        <path id="Trazado_35" data-name="Trazado 35" d="M435.1,701.6v-.711a4.465,4.465,0,0,0,1.145-.163.314.314,0,0,0,.152-.173,9.269,9.269,0,0,0,.123-1.754q.036-1.545.038-2.995,0-2.7-.055-3.867a3.724,3.724,0,0,0-.173-1.3,1.269,1.269,0,0,0-.734-.173l-.491-.042V689.7l.958.035c.593.017,1.066.024,1.417.024q.72,0,2.323-.035.865-.024,1.272-.024a6.558,6.558,0,0,1,2.249.287,2.265,2.265,0,0,1,1.1.865,2.623,2.623,0,0,1,.377,1.453,3.479,3.479,0,0,1-1.116,2.63A3.947,3.947,0,0,1,440.853,696a3.457,3.457,0,0,1-.467-.033c-.164-.022-.346-.054-.519-.093-.1-.2-.2-.4-.3-.588l.194-.209c.125.026.239.047.346.06a1.939,1.939,0,0,0,.284.024,1.818,1.818,0,0,0,1.4-.59,2.34,2.34,0,0,0,.543-1.649,2.443,2.443,0,0,0-.562-1.76,2.2,2.2,0,0,0-1.666-.576,5.068,5.068,0,0,0-1.038.126q-.083,2.611-.085,4.424,0,.609.067,3.889a10.314,10.314,0,0,0,.085,1.491.317.317,0,0,0,.163.2,6.644,6.644,0,0,0,1.441.173v.711q-1.5-.061-2.528-.059Q437.747,701.539,435.1,701.6Z" transform="translate(-407.135 -689.534)"/>
        <path id="Trazado_36" data-name="Trazado 36" d="M502.973,700.973a6.62,6.62,0,0,1-4.791-1.607,5.863,5.863,0,0,1-1.663-4.422,6.524,6.524,0,0,1,.806-3.346,5.418,5.418,0,0,1,2.234-2.121,8.007,8.007,0,0,1,3.676-.737,7.7,7.7,0,0,1,3.536.708,5.107,5.107,0,0,1,2.114,1.972,6,6,0,0,1,.742,3.092,6.885,6.885,0,0,1-.813,3.431,5.627,5.627,0,0,1-2.294,2.239A7.392,7.392,0,0,1,502.973,700.973Zm.323-.915a3.31,3.31,0,0,0,2.718-1.261,6.046,6.046,0,0,0,1.012-3.832,6.467,6.467,0,0,0-1.161-4.142,4.059,4.059,0,0,0-5.737.048,5.772,5.772,0,0,0-1.005,3.734,7.664,7.664,0,0,0,.552,3.078,3.5,3.5,0,0,0,3.621,2.375Z" transform="translate(-457.929 -688.74)"/>
        <path id="Trazado_37" data-name="Trazado 37" d="M574.61,690.413V689.7q1.407.059,2.484.059,1.137,0,2.621-.059v.713a3.569,3.569,0,0,0-1.09.135.363.363,0,0,0-.192.346q0,.289.535,2.768l.958,4.427,2.171-4.5q1.272-2.637,1.823-3.889h.754l3.528,8.8,1.426-5.266a11.133,11.133,0,0,0,.458-2.349.365.365,0,0,0-.173-.36,4.523,4.523,0,0,0-1.2-.114V689.7q1.569.059,1.993.059.519,0,1.832-.059v.713a1.9,1.9,0,0,0-.894.216,1.646,1.646,0,0,0-.386.76q-.306.924-1.517,5.317l-1.332,4.953H586.8l-3.393-8.566-2.18,4.583q-1.017,2.152-1.806,3.979h-1.211q-.22-1.028-1.415-6.362l-.908-3.965a1.392,1.392,0,0,0-.3-.716A2.562,2.562,0,0,0,574.61,690.413Z" transform="translate(-522.509 -689.534)"/>
        <path id="Trazado_38" data-name="Trazado 38" d="M681.015,701.6v-.457a4.708,4.708,0,0,0,.822-.476,54.8,54.8,0,0,0,.173-5.564q0-2.891-.059-3.832a.962.962,0,0,0-.173-.631,3.484,3.484,0,0,0-1.258-.225V689.7q2,.078,3.159.076l4.671-.076a13.142,13.142,0,0,1,1.329.061l.06.093a18.384,18.384,0,0,0-.278,2.493h-.67a7.257,7.257,0,0,0-.1-1.324.744.744,0,0,0-.386-.161,11.022,11.022,0,0,0-2.154-.154c-.474,0-1.038.021-1.661.06q-.112,2.621-.128,4.171.908.059,1.7.061a7.115,7.115,0,0,0,1.417-.076.346.346,0,0,0,.2-.247,7.643,7.643,0,0,0,.118-1.067h.73c-.029.957-.043,1.581-.043,1.87l.043,1.912h-.73a5.176,5.176,0,0,0-.152-1.287.322.322,0,0,0-.228-.145,11.6,11.6,0,0,0-1.9-.093q-.467,0-1.1.059-.016.45-.016.913,0,2.422.085,3.716l1.682.026a20.708,20.708,0,0,0,2.626-.152q.211-.784.406-1.78h.7a28.039,28.039,0,0,0-.23,2.9q-.772.061-1.483.059c-.312,0-.926-.009-1.841-.029q-1.282-.028-2.358-.029Q682.582,701.539,681.015,701.6Z" transform="translate(-610.095 -689.534)"/>
        <path id="Trazado_39" data-name="Trazado 39" d="M741.46,701.6v-.711a4.96,4.96,0,0,0,1.128-.163.3.3,0,0,0,.137-.161,6.4,6.4,0,0,0,.118-1.374q.043-1.815.043-2.858,0-1.407-.035-3.578a9.136,9.136,0,0,0-.161-1.984.287.287,0,0,0-.135-.173,4.369,4.369,0,0,0-1.1-.187V689.7q1.756.059,2.265.059l4.249-.059a5.555,5.555,0,0,1,2.014.266,2.144,2.144,0,0,1,1,.865,2.549,2.549,0,0,1,.368,1.384,2.843,2.843,0,0,1-.59,1.782,4.808,4.808,0,0,1-2.048,1.36l1.806,2.721,1.408,2.078a2.562,2.562,0,0,0,.593.614,1.481,1.481,0,0,0,.637.116v.652h-.5q-2.154.016-2.768.05-.74-1.178-2.206-3.417l-1.746-2.654a2,2,0,0,0,.126-.306,4.249,4.249,0,0,0,.5.043,2.411,2.411,0,0,0,1.557-.638,2.232,2.232,0,0,0,.763-1.818,2.092,2.092,0,0,0-.6-1.6,2.55,2.55,0,0,0-1.811-.569c-.256,0-.6.021-1.038.059l-.066,2.521-.071,3.175q0,1.078.085,2.758a8.155,8.155,0,0,0,.135,1.417.372.372,0,0,0,.185.173,3.8,3.8,0,0,0,1.147.154v.711q-1.522-.061-2.7-.059Q742.9,701.539,741.46,701.6Z" transform="translate(-660.492 -689.534)"/>
      </g>
      <g id="Grupo_2" data-name="Grupo 2" transform="translate(1.418 16.438)">
        <path id="Trazado_40" data-name="Trazado 40" d="M296.19,785.39h4.7v.452h-4.209v2.6h3.782v.452h-3.782v2.649h4.256v.453H296.19Z" transform="translate(-296.19 -785.106)"/>
        <path id="Trazado_41" data-name="Trazado 41" d="M337.55,795.19h.462v.9a1.886,1.886,0,0,1,1.73-1.01,1.835,1.835,0,0,1,1.924,1.981V800h-.457v-2.86a1.469,1.469,0,0,0-1.528-1.64,1.649,1.649,0,0,0-1.67,1.714v2.782h-.462Z" transform="translate(-330.394 -793.115)"/>
        <path id="Trazado_42" data-name="Trazado 42" d="M374.826,800.794l.273-.377a3.145,3.145,0,0,0,1.943.678,1.729,1.729,0,0,0,1.886-1.867v-.692a2.4,2.4,0,0,1-2.009,1.112,2.277,2.277,0,0,1-2.31-2.263v-.019a2.287,2.287,0,0,1,2.317-2.287,2.393,2.393,0,0,1,2.009,1.076v-.962h.462v4.062a2.221,2.221,0,0,1-.614,1.631,2.422,2.422,0,0,1-1.744.642A3.634,3.634,0,0,1,374.826,800.794Zm4.13-3.422v-.019a1.908,1.908,0,0,0-1.99-1.829,1.778,1.778,0,0,0-1.856,1.818v.019a1.827,1.827,0,0,0,1.856,1.839,1.922,1.922,0,0,0,1.99-1.829Z" transform="translate(-361.043 -793.119)"/>
        <path id="Trazado_43" data-name="Trazado 43" d="M418.2,783.75h.462v6.882H418.2Z" transform="translate(-397.091 -783.75)"/>
        <path id="Trazado_44" data-name="Trazado 44" d="M436.9,784.84h.574v.632H436.9Zm.055,1.886h.462v4.808h-.462Z" transform="translate(-412.556 -784.651)"/>
        <path id="Trazado_45" data-name="Trazado 45" d="M453.46,799.449l.273-.367a2.823,2.823,0,0,0,1.73.632c.651,0,1.161-.358,1.161-.915v-.019c0-.566-.6-.773-1.273-.962-.782-.225-1.649-.462-1.649-1.318v-.019a1.413,1.413,0,0,1,1.583-1.33,3.236,3.236,0,0,1,1.706.529l-.246.386a2.757,2.757,0,0,0-1.479-.481c-.659,0-1.093.358-1.093.839v.019c0,.536.651.735,1.339.932.772.218,1.583.5,1.583,1.349v.017a1.487,1.487,0,0,1-1.659,1.4A3.287,3.287,0,0,1,453.46,799.449Z" transform="translate(-426.251 -793.178)"/>
        <path id="Trazado_46" data-name="Trazado 46" d="M488.365,783.75h.462v2.971a1.886,1.886,0,0,1,1.73-1.01,1.835,1.835,0,0,1,1.924,1.981v2.941h-.462v-2.86a1.469,1.469,0,0,0-1.528-1.64,1.649,1.649,0,0,0-1.67,1.715v2.782h-.462Z" transform="translate(-455.113 -783.75)"/>
        <path id="Trazado_47" data-name="Trazado 47" d="M550,785.39h.49v6.6H550Z" transform="translate(-506.089 -785.106)"/>
        <path id="Trazado_48" data-name="Trazado 48" d="M569.413,795.189h.462v.9a1.88,1.88,0,0,1,1.73-1.01,1.835,1.835,0,0,1,1.924,1.981V800h-.462v-2.86a1.469,1.469,0,0,0-1.528-1.64,1.647,1.647,0,0,0-1.668,1.715v2.782h-.462Z" transform="translate(-522.141 -793.115)"/>
        <path id="Trazado_49" data-name="Trazado 49" d="M605.88,799.449l.273-.367a2.823,2.823,0,0,0,1.73.632c.65,0,1.161-.358,1.161-.915v-.019c0-.566-.6-.773-1.273-.962-.782-.225-1.649-.462-1.649-1.318v-.019a1.413,1.413,0,0,1,1.583-1.33,3.238,3.238,0,0,1,1.706.529l-.246.386a2.757,2.757,0,0,0-1.479-.481c-.659,0-1.093.358-1.093.839v.019c0,.536.65.735,1.339.932.772.218,1.583.5,1.583,1.349v.017a1.487,1.487,0,0,1-1.659,1.4A3.287,3.287,0,0,1,605.88,799.449Z" transform="translate(-552.301 -793.178)"/>
        <path id="Trazado_50" data-name="Trazado 50" d="M638.432,791.969V788.82h-.692V788.4h.692V786.86h.462V788.4h1.687v.424h-1.687v3.1a.841.841,0,0,0,.962.932,1.6,1.6,0,0,0,.706-.173v.431a1.765,1.765,0,0,1-.782.173A1.226,1.226,0,0,1,638.432,791.969Z" transform="translate(-578.649 -786.322)"/>
        <path id="Trazado_51" data-name="Trazado 51" d="M667.57,784.84h.574v.632h-.574Zm.057,1.886h.462v4.808h-.462Z" transform="translate(-603.318 -784.651)"/>
        <path id="Trazado_52" data-name="Trazado 52" d="M684.692,791.969V788.82H684V788.4h.692V786.86h.462V788.4h1.687v.424h-1.687v3.1a.841.841,0,0,0,.96.932,1.6,1.6,0,0,0,.708-.173v.431a1.776,1.776,0,0,1-.782.173A1.226,1.226,0,0,1,684.692,791.969Z" transform="translate(-616.906 -786.322)"/>
        <path id="Trazado_53" data-name="Trazado 53" d="M713.24,798.681V795.74h.462V798.6a1.467,1.467,0,0,0,1.526,1.64,1.649,1.649,0,0,0,1.669-1.716v-2.78h.462v4.808H716.9v-.9a1.882,1.882,0,0,1-1.73,1.009A1.831,1.831,0,0,1,713.24,798.681Z" transform="translate(-641.087 -793.666)"/>
        <path id="Trazado_54" data-name="Trazado 54" d="M750.8,791.969V788.82h-.692V788.4h.692V786.86h.462V788.4h1.687v.424h-1.687v3.1a.841.841,0,0,0,.96.932,1.6,1.6,0,0,0,.708-.173v.431a1.777,1.777,0,0,1-.782.173A1.226,1.226,0,0,1,750.8,791.969Z" transform="translate(-671.578 -786.322)"/>
        <path id="Trazado_55" data-name="Trazado 55" d="M777.16,797.608v-.019a2.37,2.37,0,0,1,2.282-2.509,2.278,2.278,0,0,1,2.206,2.517,1.1,1.1,0,0,1-.01.189h-3.986a1.914,1.914,0,0,0,1.886,1.9,2.162,2.162,0,0,0,1.651-.754l.32.282a2.528,2.528,0,0,1-1.99.9A2.4,2.4,0,0,1,777.16,797.608Zm3.988-.235a1.783,1.783,0,0,0-1.73-1.867,1.873,1.873,0,0,0-1.773,1.867Z" transform="translate(-693.948 -793.12)"/>
      </g>
    </g>
  </g>
</svg>
