<svg xmlns="http://www.w3.org/2000/svg" width="50" height="50" viewBox="0 0 50 50">
  <g id="Twitter" transform="translate(0.271)">
    <circle id="Elipse_12" data-name="Elipse 12" cx="25" cy="25" r="25" transform="translate(-0.271 0)" fill="#1da1f2"/>
    <path id="Trazado_86" data-name="Trazado 86" d="M41.8,16.866a12.206,12.206,0,0,1-3.511.962,6.129,6.129,0,0,0,2.688-3.382,12.244,12.244,0,0,1-3.881,1.484,6.118,6.118,0,0,0-10.417,5.576,17.353,17.353,0,0,1-12.6-6.387,6.12,6.12,0,0,0,1.892,8.161,6.094,6.094,0,0,1-2.77-.765v.076a6.121,6.121,0,0,0,4.9,6,6.113,6.113,0,0,1-2.761.1,6.121,6.121,0,0,0,5.711,4.246A12.327,12.327,0,0,1,12,35.469a17.306,17.306,0,0,0,9.371,2.747c11.244,0,17.393-9.315,17.393-17.393,0-.265,0-.529-.018-.791A12.452,12.452,0,0,0,41.8,16.866Z" transform="translate(-1.246 -1.573)" fill="#fff" fill-rule="evenodd"/>
  </g>
</svg>
