<svg xmlns="http://www.w3.org/2000/svg" xmlns:xlink="http://www.w3.org/1999/xlink" width="68" height="69" viewBox="0 0 68 69">
  <defs>
    <filter id="Rect치ngulo_25" x="0" y="0" width="68" height="69" filterUnits="userSpaceOnUse">
      <feOffset dy="3" input="SourceAlpha"/>
      <feGaussianBlur stdDeviation="3" result="blur"/>
      <feFlood flood-opacity="0.161"/>
      <feComposite operator="in" in2="blur"/>
      <feComposite in="SourceGraphic"/>
    </filter>
  </defs>
  <g id="Grupo_40" data-name="Grupo 40" transform="translate(-497.281 -901)">
    <g transform="matrix(1, 0, 0, 1, 497.28, 901)" filter="url(#Rect치ngulo_25)">
      <rect id="Rect치ngulo_25-2" data-name="Rect치ngulo 25" width="50" height="51" rx="10" transform="translate(9 6)" fill="#e5e5e5"/>
    </g>
    <g id="whataspp" transform="translate(511.387 912.387)">
      <path id="Trazado_112" data-name="Trazado 112" d="M9.185.02a21.362,21.362,0,0,0-2.59.209A8.711,8.711,0,0,0,4.4.961,7.785,7.785,0,0,0,.968,4.385,8.693,8.693,0,0,0,.236,6.571a21.3,21.3,0,0,0-.213,2.61c-.013.371-.02.85-.02,1.072L0,30.147c0,.22.007.7.02,1.071a21.348,21.348,0,0,0,.209,2.59,8.714,8.714,0,0,0,.732,2.2,7.786,7.786,0,0,0,3.424,3.427,8.688,8.688,0,0,0,2.187.732,21.2,21.2,0,0,0,2.61.213c.371.013.85.02,1.072.02l19.894,0c.22,0,.7-.007,1.071-.02a21.405,21.405,0,0,0,2.59-.209,8.716,8.716,0,0,0,2.2-.732,7.788,7.788,0,0,0,3.427-3.424,8.7,8.7,0,0,0,.732-2.187,21.342,21.342,0,0,0,.213-2.61c.013-.371.02-.85.02-1.072l0-19.894c0-.22-.007-.7-.02-1.071a21.4,21.4,0,0,0-.209-2.59,8.7,8.7,0,0,0-.732-2.2A7.782,7.782,0,0,0,36.019.968,8.694,8.694,0,0,0,33.832.236a21.29,21.29,0,0,0-2.61-.213C30.851.01,30.372,0,30.15,0L10.256,0C10.036,0,9.556.007,9.185.02Z" transform="translate(0 0)" fill="#25cf43"/>
      <path id="Trazado_113" data-name="Trazado 113" d="M39.861,34.136c-.36-.18-2.129-1.05-2.459-1.17s-.57-.18-.81.18-.93,1.17-1.14,1.411-.42.27-.78.09a9.828,9.828,0,0,1-2.894-1.786,10.843,10.843,0,0,1-2-2.492c-.21-.36-.022-.555.158-.734.162-.161.36-.42.54-.63a2.455,2.455,0,0,0,.36-.6.662.662,0,0,0-.03-.63c-.09-.18-.81-1.951-1.11-2.671-.292-.7-.589-.607-.81-.618s-.45-.013-.69-.013a1.322,1.322,0,0,0-.96.45,4.034,4.034,0,0,0-1.259,3,7,7,0,0,0,1.469,3.721,16.039,16.039,0,0,0,6.147,5.432,20.717,20.717,0,0,0,2.051.758,4.935,4.935,0,0,0,2.267.143,3.706,3.706,0,0,0,2.429-1.711,3.007,3.007,0,0,0,.21-1.711C40.46,34.406,40.22,34.316,39.861,34.136ZM33.294,43.1h0A11.954,11.954,0,0,1,27.2,41.43l-.437-.259-4.531,1.188,1.209-4.416-.285-.453A11.971,11.971,0,1,1,33.294,43.1ZM43.482,20.947A14.4,14.4,0,0,0,20.814,38.319l-2.043,7.461,7.635-2a14.4,14.4,0,0,0,6.882,1.752h.006A14.4,14.4,0,0,0,43.482,20.947Z" transform="translate(-12.655 -11.275)" fill="#fff" fill-rule="evenodd"/>
    </g>
  </g>
</svg>
