<svg xmlns="http://www.w3.org/2000/svg" width="66.953" height="62.749" viewBox="0 0 66.953 62.749">
  <g id="worldicon" transform="translate(1.251 1.251)">
    <path id="Trazado_66" data-name="Trazado 66" d="M45.563,61.127A16.813,16.813,0,1,0,28.75,44.314,16.813,16.813,0,0,0,45.563,61.127Z" transform="translate(2.075 -0.88)" fill="none" stroke="#000" stroke-miterlimit="10" stroke-width="2.502"/>
    <path id="Trazado_67" data-name="Trazado 67" d="M36.734,58.8a28.405,28.405,0,0,1-7.461,1A28.023,28.023,0,1,1,57.3,31.774c0,.28,0,.56-.018.841" transform="translate(-1.25 -3.751)" fill="none" stroke="#000" stroke-miterlimit="10" stroke-width="2.502"/>
    <path id="Trazado_68" data-name="Trazado 68" d="M27.6,3.782V9.352a4.193,4.193,0,0,1-4.2,4.2,4.193,4.193,0,0,0-4.2,4.2v2.7a7.013,7.013,0,0,0,2.049,4.957l1.8,1.8a5.944,5.944,0,0,1-4.2,10.141H16.394a4.193,4.193,0,0,1-4.2-4.2v-1.3A7.013,7.013,0,0,0,10.142,26.9L3.469,20.228" transform="translate(-0.982 -3.747)" fill="none" stroke="#000" stroke-miterlimit="10" stroke-width="2.502"/>
    <path id="Trazado_69" data-name="Trazado 69" d="M29.753,23.71a3.513,3.513,0,0,1-3.5-3.5,3.475,3.475,0,0,1,1.4-2.8l5.6-4.2a3.5,3.5,0,0,1,5.6,2.8v4.2a3.513,3.513,0,0,1-3.5,3.5Z" transform="translate(1.772 -2.693)" fill="none" stroke="#000" stroke-miterlimit="10" stroke-width="2.502"/>
    <path id="Trazado_70" data-name="Trazado 70" d="M22.858,54.852V42.8a2.81,2.81,0,0,0-2.8-2.8H16.57a4.851,4.851,0,0,0-3.888,1.769L7.953,46.5" transform="translate(-0.44 0.632)" fill="none" stroke="#000" stroke-miterlimit="10" stroke-width="2.502"/>
    <path id="Trazado_71" data-name="Trazado 71" d="M36,42.061l7.42,7.148L55.055,38" transform="translate(2.951 0.39)" fill="none" stroke="#000" stroke-miterlimit="10" stroke-width="2.517"/>
  </g>
</svg>
