<svg xmlns="http://www.w3.org/2000/svg" width="50" height="50" viewBox="0 0 50 50">
  <g id="YouTube" transform="translate(-0.093)">
    <circle id="Elipse_13" data-name="Elipse 13" cx="25" cy="25" r="25" transform="translate(0.093 0)" fill="red"/>
    <path id="Trazado_87" data-name="Trazado 87" d="M41.171,16.711A4.011,4.011,0,0,1,42.207,18.5c1.054,4.243.81,10.943.02,15.349A4.011,4.011,0,0,1,39.4,36.673c-2.476.675-12.443.675-12.443.675s-9.967,0-12.443-.675a4.011,4.011,0,0,1-2.824-2.824c-1.06-4.224-.77-10.929-.02-15.329A4.011,4.011,0,0,1,14.5,15.7c2.476-.675,12.443-.7,12.443-.7s9.967,0,12.443.675A4.011,4.011,0,0,1,41.171,16.711Zm-9.136,9.463-8.268,4.789V21.385Z" transform="translate(-1.763 -1.331)" fill="#fff" fill-rule="evenodd"/>
  </g>
</svg>
